<?xml version="1.0" standalone="no"?>
<!DOCTYPE svg PUBLIC "-//W3C//DTD SVG 20010904//EN"
 "http://www.w3.org/TR/2001/REC-SVG-20010904/DTD/svg10.dtd">
<svg version="1.0" xmlns="http://www.w3.org/2000/svg"
 width="222.000000pt" height="130.000000pt" viewBox="0 0 222.000000 130.000000"
 preserveAspectRatio="xMidYMid meet">
<metadata>
Created by potrace 1.10, written by Peter Selinger 2001-2011
</metadata>
<g transform="translate(0.000000,130.000000) scale(0.100000,-0.100000)"
fill="#000000" stroke="none">
<path d="M477 1233 c-4 -6 0 -27 8 -47 8 -19 16 -52 16 -73 1 -21 5 -51 10
-68 6 -21 7 -5 5 50 -4 80 -26 159 -39 138z"/>
<path d="M415 1080 c-10 -16 -84 -32 -147 -31 -32 0 -58 -4 -58 -9 0 -4 -3
-15 -6 -23 -8 -21 31 -28 104 -17 80 11 137 39 138 68 1 22 -20 30 -31 12z"/>
<path d="M595 1049 c-3 -8 -4 -107 -3 -219 l3 -205 100 3 c123 3 154 12 198
62 46 50 64 129 48 207 -23 114 -81 154 -238 161 -82 4 -104 2 -108 -9z m206
-82 c42 -28 63 -84 54 -148 -13 -90 -58 -129 -152 -129 l-33 0 0 150 0 150 49
0 c33 0 58 -7 82 -23z"/>
<path d="M1032 1052 c-9 -7 -12 -57 -10 -218 l3 -209 35 0 35 0 5 185 5 185
59 -175 c32 -96 63 -181 69 -188 6 -7 24 -12 41 -10 38 4 45 17 111 218 28 82
52 150 55 150 3 0 5 -82 5 -182 l0 -183 39 0 38 0 -1 209 c-1 115 -4 213 -7
218 -7 11 -91 10 -113 -1 -10 -6 -39 -68 -71 -156 -29 -80 -56 -142 -60 -138
-4 4 -28 70 -55 146 -30 87 -54 141 -66 147 -21 12 -99 13 -117 2z m98 -52 c0
-5 -8 -6 -19 -3 -11 3 -21 -2 -24 -11 -8 -19 -27 -21 -27 -3 0 22 20 34 46 29
13 -2 24 -8 24 -12z m348 -16 c2 -28 2 -28 -13 -10 -18 24 -20 49 -2 44 6 -3
13 -18 15 -34z m-223 -244 c4 -6 15 -8 26 -5 15 5 19 1 19 -17 0 -24 -16 -48
-33 -48 -7 0 -37 60 -37 75 0 9 19 5 25 -5z"/>
<path d="M1631 1046 c-8 -9 -11 -75 -9 -217 3 -188 4 -204 21 -207 10 -2 28
-1 40 2 22 5 22 7 19 188 -2 100 0 180 3 176 4 -4 32 -83 62 -175 31 -92 60
-174 65 -180 11 -13 46 -17 70 -8 7 3 40 86 73 185 33 98 62 179 65 180 3 0 5
-82 5 -182 l0 -183 40 0 40 0 3 204 c2 142 -1 208 -9 217 -14 18 -99 18 -122
2 -9 -7 -39 -77 -68 -156 -28 -78 -54 -140 -58 -137 -3 3 -27 68 -53 143 -26
75 -56 143 -65 150 -23 16 -108 16 -122 -2z m99 -47 c0 -5 -6 -6 -14 -3 -7 3
-20 -2 -29 -10 -9 -9 -18 -16 -21 -16 -12 0 -6 38 6 42 18 6 58 -3 58 -13z
m349 -10 c3 -23 2 -23 -16 -6 -11 9 -26 17 -34 17 -12 0 -12 2 0 9 23 15 46 6
50 -20z m-185 -250 c11 10 16 10 16 2 0 -19 -30 -71 -40 -71 -13 0 -30 34 -30
59 0 18 3 20 19 9 15 -9 23 -9 35 1z"/>
<path d="M48 948 c-3 -71 -3 -85 9 -139 33 -149 105 -226 259 -279 97 -34 212
-49 487 -65 144 -8 276 -18 293 -21 21 -4 42 1 69 18 l40 23 -85 12 c-47 7
-211 19 -364 28 -153 9 -282 18 -286 20 -5 3 -24 7 -43 9 -154 20 -282 99
-334 204 -23 48 -28 70 -28 139 0 46 -3 83 -7 83 -5 0 -9 -15 -10 -32z"/>
<path d="M237 910 c-3 -14 -4 -26 -3 -27 1 -1 36 1 79 4 73 6 77 7 77 30 0 24
-1 24 -74 21 -71 -3 -75 -4 -79 -28z"/>
<path d="M491 878 c-6 -29 -20 -102 -31 -163 -11 -60 -22 -119 -25 -129 -2
-11 0 -15 5 -10 13 13 77 354 67 354 -3 0 -10 -24 -16 -52z"/>
<path d="M278 813 c-54 -4 -58 -6 -58 -28 0 -23 4 -25 49 -25 65 0 81 7 81 36
0 13 -3 23 -7 22 -5 -1 -34 -3 -65 -5z"/>
<path d="M416 448 c-12 -40 11 -156 43 -220 36 -70 79 -128 97 -128 27 0 22
19 -16 61 -62 67 -103 158 -110 243 -5 57 -8 66 -14 44z"/>
<path d="M820 383 c-16 -24 -44 -47 -75 -63 -55 -27 -65 -37 -65 -62 0 -43
135 51 160 111 19 48 7 56 -20 14z"/>
<path d="M637 380 c-16 -17 -39 -30 -53 -30 -13 0 -24 -4 -24 -9 0 -5 -3 -16
-6 -25 -10 -26 40 -20 74 9 28 23 60 86 44 85 -4 -1 -20 -14 -35 -30z"/>
<path d="M967 375 c-10 -21 -16 -40 -13 -42 8 -8 38 46 34 63 -2 11 -9 5 -21
-21z"/>
</g>
</svg>
